<svg width="2736" height="3648" xmlns="http://www.w3.org/2000/svg" xmlns:xlink="http://www.w3.org/1999/xlink">
<title>Jack Sparrow</title>
<desc> A Jack Sparrow Made using Pure SVG</desc>

<defs>
<clipPath id="cut-off-bottom">
  <rect x="100" y="50" width="10" height="10" />
</clipPath>
</defs>

<rect id="head"
	x="824" y="549"
	height="2705"
	width="1463"
	fill="#341100"
	stroke="black"
	stroke-width="10"
	rx="590"
	ry="890"
	/>
<rect id="head"
	x="1024" y="649"
	height="2705"
	width="1050"
	fill="white"
	stroke="none"
	rx="590"
	ry="1090"
	/>
<rect id="head"
	x="924" y="649"
	height="1705"
	width="1243"
	fill="black"
	stroke="black"
	stroke-width="3"
	rx="590"
	ry="890"
	/>

<rect 
	x="1368"
	y="2020"
	height="1000"
	width="410"
	rx="170"
	ry="330"
	fill="black"
	stroke-width="90"
	stroke="black"
	
	/>
<rect 
	x="1415"
	y="2330"
	height="780"
	width="320"
	rx="970"
	ry="230"
	fill="white"
	stroke-width="90"
	stroke="none"
	
	/>
<rect id="face"
	x="947"
	y="640"
	height="1625"
	width="1200"
	fill="#E1BBA5"
	stroke="none"
	rx="490"
	ry="990"
	/>
	
<path id="hairbraids"
	stroke="#632500"
	fill="none"
	stroke-width="30"
	stroke-linecap="round"
	d="M 999 1308 Q 800 2100 1200 2500"
	/>
<path id="hairbraids"
	stroke="#3C1700"
	fill="none"
	stroke-dasharray="30,40"
	stroke-width="40"
	stroke-linecap="round"
	d="M 999 1308 Q 800 2100 1200 2500"
	/>
	
<path id="bandana"
	stroke="black"
	stroke-width="8"
	fill="brown"
	d="M 929 1508 Q 1259 1058 2145 1235, 2199 598, 1549 598, 849 598,929 1508 "
	/>


<g id="bandana_decor" transform="scale(0.75) rotate(350,2945, -2350)">

<rect
	x="1575"
	y="600"
	height="140"
	width="100"
	stroke="black"
	fill="#762F00"
	stroke-width="6"
	rx="2300"
	ry="20"
	/>

	<circle id="first"
		
		cx="1635"
		cy="780"
		r="50"
		
		fill="lightblue"
		stroke="black"
		stroke-width="6"
		/>
	<ellipse 
		cx="1635"
		cy="850"
		rx="40"
		ry="20"
		fill="white"
		stroke-width="5"
		stroke="black"
		/>
	<use xlink:href="#first" x="0" y="140"/>
	<circle
		cx="1635"
		cy="1020"
		r="60"
		stroke="black"
		stroke-width="5"
		fill="red"
		/>
	<circle
		cx="1635"
		cy="1140"
		r="80"
		fill="silver"
		stroke="black"
		stroke-width="4"
		/>


	
</g>

<g id="eyes">
<ellipse
	cx="1252"
	cy="1491"
	rx="185"
	ry="190"
	stroke="none"
	
	fill="#585858"
	/>
<ellipse
	cx="1252"
	cy="1491"
	rx="175"
	ry="140"
	stroke="black"
	stroke-width="15"
	fill="#F1F1F1"
	/>
<ellipse
	cx="1252"
	cy="1491"
	rx="40"
	ry="50"
	fill="black"
	stroke="none"
	/>
</g>
<use xlink:href="#eyes" x="620" y="0"/>

<!--rect 
	x="1390"
	y="1950"
	height="300"
	width="350"
	rx="150"
	ry="250"
	fill="black"
	stroke-width="90"
	stroke="black"
	
	/-->

<ellipse
	cx="1565"
	cy="2030"
	rx="185"
	ry="200"
	fill="black"
	stroke="black"
	/>
<ellipse
	cx="1565"
	cy="2080"
	rx="175"
	ry="150"
	fill="#E1BBA5"
	stroke="none"
	/>
<ellipse
	cx="1565"
	cy="2080"
	fill="black"
	rx="80"
	ry="60"
	/>
<ellipse
	cx="1565"
	cy="2030"
	fill="#E1BBA5"
	rx="110"
	ry="40"
	/>

<ellipse
	cx="1565"
	cy="2020"
	fill="#E1BBA5"
	rx="110"
	ry="80"
	/>
	
<rect id="leftspace"
	x="1779"
	y="2275"
	height="700"
	width="120"
	fill="white"
	rx="90"
	ry="120"
	stroke="none"
	/>
<use xlink:href="#leftspace" x="-530" y="30"/>

<g id="nose">
<use xlink:href="#mid" x="-70" y="-10"/>
<use xlink:href="#mid" x="70" y="-10"/>
	<circle id="mid"
	cx="1565"
	cy="1780"
	r="60"
	stroke="black"
	fill="#D6B19B"
	
	stroke-width="5"
	/>
<ellipse
	cx="1565"
	cy="1580"
	rx="100"
	ry="240"
	fill="#D6B19B"
	stroke="none"
	/>
	<circle id="mid"
	cx="1565"
	cy="1380"
	r="90"
	stroke="none"
	fill="#E1BBA5"
	
	stroke-width="5"
	/>

</g>

<polyline id="lips"
	stroke="black"
	stroke-width="10"
	stroke-linejoin="round"
	points="1400 2010, 1565 1970, 1730 2010 "
	/>



	

</svg>
