<svg width="1173" height="732" xmlns="http://www.w3.org/2000/svg" xmlns:xlink="http://www.w3.org/1999/xlink">
<title>Bicycle Anim</title>
<desc> A Bicycle Made using Pure SVG</desc>

<defs>
<linearGradient id="seat">
<stop offset="0%" style="stop-color:##00013F;"/>
<stop offset="100%" style="stop-color: #0033D5;"/>
</linearGradient>
</defs>
<defs>
<linearGradient id="two_hues_inv">
<stop offset="15%" style="stop-color: blue;"/>
<stop offset="68%" style="stop-color: darkpurple;"/>
</linearGradient>
</defs>
<defs>
<linearGradient id="two_hues">
<stop offset="20%" style="stop-color: darkpurple;"/>
<stop offset="100%" style="stop-color: blue;"/>
</linearGradient>
</defs>
<defs>
<linearGradient id="three_hues" spreadMethod="reflected">
<stop offset="0%" style="stop-color: white;"/>
<stop offset="36.66%" style="stop-color:green;"/>
<stop offset="50%" style="stop-color: white;"/>
</linearGradient>
</defs>

<g id="bicyclefull" transform="translate(0,230)">
<rect
	x="100"
	y="10"
	rx="50"
	ry="50"
	height="100"
	width="250"
	stroke="none"
	fill="white"
	
	/>
<circle id="circ"
	cx="320"
	cy="250"
	r="70"
	stroke="none"
	fill="white"
	/>
<use xlink:href="#circ" x="270" y="170" transform="scale(0.65)"/>
<use xlink:href="#circ" x="70" y="150" transform="scale(0.65)"/>
<g id="frame">
<rect
	x="0"
	y="-230"
	height="1500"
	width="1200"
	stroke="none"
	stroke-width="4"
	fill="skyblue"
	/>
</g>

<g id="sun">
	<circle
		cx="150"
		cy="-10"
		r="70"
		stroke="yellow"
		fill="yellow"
	/>
<circle
                cx="150"
                cy="-10"
                r="80"
		stroke-width="19"
                stroke="yellow"
		stroke-dasharray="3,10"
                fill="none"
        />

</g>

<!--g id="background">
<rect 
		x="0"
		y="0"
		height="462"
		width="1000"
		stroke="none"
		fill="url(#three_hues)"
	/>
	<animateTransform
begin="0s" dur="3s" repeatDur="indefinite" attributeName="transform" type="translate"
from="600" to="0" fill="freeze"/>
</g-->


<g id="fence">
<circle 
	cx="50"
	cy="120"
	r="50"
	stroke="black"
	stroke-width="2"
	fill="lightgreen"
	/>
<rect id="hlj"
	x="0" y="120"
	width="1200"
	height="342"
	stroke="black"
	stroke-width="2"
	fill="lightgreen"
	/>
<line 
		x1="0"
		y1="120"
		x2="0"
		y2="462"
		stroke="black"
		stroke-width="5"
		/>
<circle id="nails"
	cx="0"
	cy="120"
	stroke="black"
	stroke-width="2"
	fill="silver"
	r="2"
	/>
<use xlink:href="#nails" x="25" y="0" />
<use xlink:href="#nails" x="50" y="0" />
<use xlink:href="#nails" x="75" y="0" />

		
		
 <animateTransform
begin="0s" dur="0.92s" repeatDur="indefinite" attributeName="transform" type="translate"
from="0" to="-100" fill="freeze"/>
</g>
<use xlink:href="#fence"   x="100" y="0" />
<use xlink:href="#fence" x="200" y="0" />
<use xlink:href="#fence" x="300" y="0" />
<use xlink:href="#fence" x="400" y="0" />
<use xlink:href="#fence" x="500" y="0" />
<use xlink:href="#fence" x="600" y="0" />
<use xlink:href="#fence" x="700" y="0" />
<use xlink:href="#fence" x="800" y="0" />
<use xlink:href="#fence" x="900" y="0" />
<use xlink:href="#fence" x="1000" y="0" />
<use xlink:href="#fence" x="1100" y="0" />
<use xlink:href="#fence" x="1200" y="0" />




<g id="path">
	
	
	<line 
		x1="0"
		y1="462"
		x2="1700"
		y2="462"
		stroke="black"
		stroke-width="4"
		/>
	<line 
		x1="0"
		y1="460"
		x2="1600"
		y2="460"
		stroke-width="3"
		stroke="black"
		stroke-dasharray="8"
		
		/>
		<animateTransform
begin="0s" dur="1s" repeatDur="indefinite" attributeName="transform" type="translate"
from="10" to="-100" fill="freeze"/>
	
</g>

<g id="bicycle">

<g id="wheels" stroke="black" fill="none" stroke-width="19">
<!-- For rotating the back wheel, 154,335 is the centre of rotation, To disable rotation, remove the <g> pairs-->
	<g id="back_wheel">  
	<circle 
		cx="154" 
		cy="336" 
		r="114"/>
	
  	<circle 
		cx="154" 
		cy="336" 
		r="115" 
		fill="none" 
		stroke-width="20" 
		stroke="black" 
		stroke-dasharray="9,4"/>
	<circle 	
		cx="154" 
		cy="336" 
		r="100.5" 
		stroke="grey" 
		stroke-width="10.8"/>
	<circle 
		cx="154" 
		cy="336" 
		r="56" 
		fill="none" 
		stroke-width="80" 
		stroke="grey" 
		stroke-dasharray="5,20"/>
	<circle 
		cx="154" 
		cy="336" 
		r="17" 
		stroke="grey" 
		fill="grey" 
		stroke-width="1"/>
	<circle 
		cx="154" 
		cy="336" 
		r="11" 
		stroke="black" 
		fill="grey" 
		stroke-width="2"/>
	<circle 
		cx="154" 
		cy="336" 
		r="8"
		fill="none"
		stroke="black"
		stroke-width="6"
		stroke-dasharray="1,1"/>
	
<!-- from & to is required for a circle to rotate on it's own centre, else the circle will start to revolve around the centre 
	repeatCount denotes how many times the animation will be repeated.
	dur is the time duration.
	by is the angle of rotation, not quite useful in a circle.-->

		<animateTransform attributeName="transform" type="rotate" from="0 154 336" to="360 154 336"
        repeatCount="indefinite" dur="6s" by="360" />
        </g>
        <use xlink:href="#back_wheel" x="409" y="0" /> <!-- This is the front wheel made from translating the back wheel -->
</g>



<g id="back_chain_spocket">
	
	<circle 
		cx="154" 
		cy="336" 
		r="14.25" 
		stroke="black" 
		fill="none" 
		stroke-width="2"/>

	<circle 
		cx="154" 
		cy="336" 
		r="15" 
		fill="none" 
		stroke-width="2" 
		stroke="black" 
		stroke-dasharray="4,2" 
		transform="rotate(0)"/>
		
	
	<animateTransform attributeName="transform" type="rotate" from="0 154 336" to="360 154 336"
        repeatCount="indefinite" dur="1s" by="360" />
        
</g>	



<g id="pedal_other_side" >
   <g id="s" transform="translate(317,343) rotate(180)">
    <line 
    	stroke-width="10" 
    	y2="50" 
    	stroke="black" 
    	stroke-linecap="round" />
    <animateTransform attributeName="transform" type="rotate" additive="sum"
        repeatCount="indefinite" dur="3s" by="360" />
   </g>
   <g id="footrest" transform="translate(317,343) rotate(180)">
   	<line 
   		stroke-width="12" 
   		x1="-1" 
   		x2="1" 
   		y1="50" 
   		y2="50" 
   		stroke="black" 
   		stroke-linecap="round"/>
   	<animateTransform attributeName="transform" type="rotate" additive="sum" 
        repeatCount="indefinite" dur="3s" by="360" />
   </g>
</g>


<g id="frame" stroke="#690000" stroke-linecap="round"> 
<!-- front arm to chain spocket -->
	<polyline 
		stroke-linejoin="round" 
		stroke-width="1" 
		points="314 330, 482 150, 495 169, 318 355" 
		fill="url(#two_hues)" 
		stroke="none"/>

<!-- seat to front arm -->
	<polyline 
		stroke-linejoin="round" 
		stroke-width="1" 
		points="272 172,  472 134,  476 155,  272 190" 
		fill="url(#two_hues)" 
		stroke="none"/>


<!-- seat to chainspocket -->
	<polyline 
		stroke-linejoin="round" 
		stroke-width="1" 
		points="252 172,  273.5 164,  326 350,  305 345" 
		fill="url(#two_hues)" stroke="none"/>
		

<!-- Chain -->
<g id="chain">
	<line 
		x1="317" y1="304" 
		x2="154" y2="320.5" 
		stroke="black" 
		fill="black" 
		stroke-width="2"/>
</g> 

<!-- seat to backwheel -->
	<polyline 
	
		stroke-width="1"
		stroke="none"
		stroke-linejoin="round"
		fill="url(#two_hues_inv)"
		points="150 333,  258 175,  262 195,  159 341, 154 330, 317 332, 317 347, 154 340.5"/>

	
<!-- front arm -->
	<polyline
		stroke-linejoin="round" 
		stroke-width="1" 
		stroke="none"
		fill="url('#two_hues_inv')"
		points="459 125, 485 120, 573 332.5, 554.25 342"/>
</g>

<!-- Handle -->
<g id="handle">
	<line 
		x1="473.5" y1="126" 
		x2="454" y2="80" 
		stroke="black" 
		stroke-width="21"/>
	<line 
		x1="451" y1="85" 
		x2="500" y2="85" 
		stroke="black" 
		stroke-width="14" 
		stroke-linecap="round"/>
	<path  
		stroke="black" 
		fill="none" 
		stroke-width="14" 
		stroke-linecap="round" 
		d="M 500 85 Q 555 85, 510 130"/>
<!--handle knot -->
	<line 
		x1="474" 
		y1="127" 
		x2="471" 
		y2="120" 
		stroke="black" 
		stroke-width="26"/>
	<line 
		x1="501" 
		y1="190" 
		x2="514" 
		y2="220" 
		stroke="black" 
		fill="black" 
		stroke-width="28" 
		stroke-linecap="round"/>
</g>



<g id="seat">
	<!--seat base rod -->
	<line 
		x1="263.25" y1="170" 
		x2="245" y2="112" 
		stroke="black" 
		stroke-width="18"/>
	<!-- Actual Seat -->
	<polyline 
		stroke-linejoin="round" 
		stroke="url('#seat')" 
		stroke-width="6" 
		fill="url('#seat')" 
		points="240 115, 220 95, 305 95, 238 114"/>	
	<!-- Seat Knot -->
	<line
		 x1="262.5" 
		 y1="169.5" 
		 x2="258.4" 
		 y2="155.5" 
		 stroke="black" 
		 stroke-width="27"/>
</g>




<!-- front chain sprocket -->
<g id="front_chain_wheel" transform="translate(317,343) rotate(180)">
	<circle 
		cx="317" cy="343" r="38" 
		stroke="black" 
		fill="silver" 
		fill-opacity="0.90" 
		stroke-width="3.5"/>
	<circle 
		cx="317" cy="343" r="10" 
		stroke="black" 
		fill="grey" 
		stroke-width="2"/>
	<circle cx="317" cy="343" r="39" 
		fill="none" 
		stroke-width="4" 
		stroke="black" 
		stroke-dasharray="4,6" 
		/> <!-- Sprocket -->
	 <circle cx="317" cy="343" r="25" 
                fill="none" 
                stroke-width="10" 
                stroke="black" 
                stroke-dasharray="5,8.2"/> 
	<animateTransform attributeName="transform" type="rotate" from="0 317 343" to="360 317 343"
        repeatCount="indefinite" dur="3s" by="360" />
</g>

<!-- Chain -->

<line x1="317" y1="382.20" x2="154" y2="351" stroke="black" fill="black" stroke-width="2"/>


<!-- Pedal-1 -->
<g id="pedal" >
	<g id="s" transform="translate(317,343) rotate(0)">
    		<line stroke-width="10" y2="50" stroke="black" stroke-linecap="round" />
    		<animateTransform attributeName="transform" type="rotate" additive="sum"
        	repeatCount="indefinite" dur="3s" by="360" />
   	</g>
 	<g id="footrest">
 		<line x1="312" y1="343" x2="320" y2="343" stroke-width="10" stroke="black"/>
 		
   </g>
</g>

<!-- knots -->
<g id="knots" stroke="#e1e1e1" fill="#e1e1e1">

	<circle cx="154" cy="336" r="4" stroke="blue" fill="blue"/> <!-- Rear wheel cov -->
	<circle cx="154" cy="336" r="2"/> <!-- Rear Knot -->
	<circle cx="563" cy="336" r="10.5" stroke="none" fill="black"/> <!-- front knot cover -->
	<circle cx="563" cy="336" r="4"/> <!-- front -->
	<circle cx="317" cy="343" r="1" stroke="white" fill="white" stroke-width="1"/> <!-- Pedal knot -->

</g>
</g>



	
 <!-- Description -->
 <text x="90" y="490" style="font-family: sans-serif; font-size: 10pt; stroke: none; fill: black;">A Bicycle Made using Pure SVG Codes</text>
</g> 
</svg>
